<svg height="45" viewBox="0 0 263 45" width="263" xmlns="http://www.w3.org/2000/svg">
                <g fill="#1a1919" fill-rule="evenodd">
                  <path d="m62.4009883 32.5185884c0 .9718693.4844838 1.548307 2.4559387 1.548307 3.6655473 0 5.6716224-2.6299406 5.7061426-5.3319235.0344202-3.4226049-2.8009407-5.0790753-8.1620813-4.971012zm0-10.1956726c5.0499583 0 7.0559334-1.6572709 7.0559334-5.1878391 0-2.6652613-1.7293131-4.6827431-5.1878391-4.6827431-1.2112095 0-1.8680943.4682743-1.8680943 1.6571707zm-7.8853192 13.1851238v-.9367487c2.5249791-.1080633 3.1818639-.3955317 3.1818639-2.9542306v-16.7156921c0-2.557198-.6568848-2.8461673-3.1818639-2.9534301v-.9367487h10.3757781c5.6716224 0 9.2696302 2.0896241 9.2696302 6.0525455 0 3.0975146-2.3524781 5.1150965-5.2230597 5.6201923v.0713418c3.0430826.6124588 6.4679889 2.2336085 6.4679889 5.9797029 0 3.9629215-2.9741422 6.7730677-9.2006897 6.7730677z"></path>
                  <path d="m87.2680554 26.213795c-2.7664205.7918639-5.8103036 1.8726971-5.8103036 4.5394593 0 1.5130863.9688675 2.593119 2.4551382 2.593119 1.2111094 0 2.4904589-.8639061 3.3551654-1.8013552zm4.1499311 6.5561406c0 .4683744.1741019.7925643.5542246.7925643.3457025 0 .7949657-.360211 1.0371076-.5763376l.5534242.6491803c-.8300863 1.4043226-2.3516777 2.3057507-4.0112498 2.3057507-2.0059751 0-2.2834377-1.2977602-2.2834377-2.5226778-1.6603726 1.4411442-3.2509044 2.5226778-5.602582 2.5226778-2.4215185 0-4.3577527-1.0815336-4.3577527-4.3960752 0-5.0797758 6.8136914-5.9076607 9.9603347-6.9163516 0-4.2865111-.7604454-5.0430542-2.9052018-5.0430542-1.8327737 0-2.1447564.863906-2.1447564 2.4490346 0 1.2970598-.8293859 1.8733974-1.8319732 1.8733974-1.0033878 0-1.8342745-.5763376-1.8342745-1.8733974 0-2.6659617 3.2516048-3.8900788 6.3644283-3.8900788 3.458626 0 6.5017087 1.4042226 6.5017087 5.4384859z"></path>
                  <path d="m100.480996 28.6628297c0 4.3232325 1.105647 5.836419 3.249903 5.836419 2.075216 0 3.597108-1.6572709 3.597108-6.8443094 0-4.6835437-1.799054-6.7730677-3.97733-6.7730677-1.383811 0-2.248317.9366487-2.869681 1.548307zm0 11.4566113c0 1.9087181.241141 2.1255451 2.80064 2.2337085v.9359483h-9.0619083v-.9359483c1.8679943-.1081634 2.1094357-.3249904 2.1094357-2.2337085v-17.6524408c0-1.7293131-.4154433-2.0888237-2.1094357-2.0888237v-.9374491c1.0371076-.1793051 5.8100033-1.2961593 6.0181253-1.2961593.173102 0 .243143.179305.243143.3595106v2.2696295c1.347789-1.3690019 3.041781-2.6291401 5.013937-2.6291401 3.285925 0 5.983505 3.4225049 5.983505 7.8891214 0 5.2959024-3.320946 9.9074038-7.262254 9.9074038-1.903115 0-2.837663-.6853015-3.735188-1.3698024z"></path>
                  <path d="m122.753043 20.3782766h-3.804229v10.5903038c0 1.369102.345202 2.0903245 1.244729 2.0903245.864507 0 1.453852-.6124588 2.421419-1.585929l.692405.7205221c-1.279749 1.8733974-2.490459 3.7475953-5.049958 3.7475953-2.490459 0-3.459026-1.5138868-3.459026-4.2158697v-11.346947h-2.075216v-1.225718c2.524479-.3963322 4.461614-2.4490347 5.118999-6.2679718h1.106648v5.6915341h3.804229z"></path>
                  <path d="m125.692765 12.956629c0-1.4050231 1.106648-2.5218773 2.421418-2.5218773 1.31377 0 2.420418 1.1168542 2.420418 2.5218773 0 1.3322804-1.106648 2.5211769-2.420418 2.5211769-1.31477 0-2.421418-1.1888965-2.421418-2.5211769zm-1.764034 22.5513106v-.9366487c1.799054-.1440844 2.109236-.7925643 2.109236-2.3049503v-9.0067761c0-2.4138141-.621364-2.8100462-2.109236-2.8100462v-.9367487c1.972156-.1440844 5.638303-1.3682015 5.949485-1.3682015.311183 0 .311183.2513472.311183.6476794v13.4740931c0 1.512386.623365 2.3049503 2.040195 2.3049503v.9366487z"></path>
                  <path d="m133.578384 29.7436628h.899527c.691405 2.234509 2.248317 4.7555859 5.083978 4.7555859 1.27975 0 2.385398-.6484799 2.385398-2.1616663 0-1.5843281-1.036608-2.1247447-2.62754-3.0261728l-2.559499-1.4763648c-1.625953-.9367488-2.974743-1.9462401-2.974743-5.0077336 0-2.4491347 1.903115-4.6827431 5.15402-4.6827431 2.490458 0 2.870681.9359483 3.769208.9359483.588344 0 .692405-.3595106.830486-.8647066h.899527v5.7643768h-1.106648c-.692406-2.3057507-2.076217-4.3945743-4.634715-4.3945743-1.17669 0-2.075216.6476794-2.075216 2.232908 0 1.0087909.380223 1.5852286 1.799054 2.3409713l2.904702 1.5138869c2.316356 1.1888964 3.805229 2.3417718 3.805229 5.1879391 0 3.3144416-2.283338 5.0797757-5.430181 5.0797757-1.24573 0-2.076217-.1448849-2.732601-.3249904-.899527-.2514473-1.34879-.6124588-1.868094-.6124588-.346203 0-.553325.3962321-.622365.9374492h-.899527z"></path>
                  <path d="m156.093573 20.3782766h-3.804228v10.5903038c0 1.369102.346203 2.0903245 1.244729 2.0903245.864506 0 1.451851-.6124588 2.421419-1.585929l.691405.7205221c-1.27975 1.8733974-2.489459 3.7475953-5.048958 3.7475953-2.490459 0-3.460027-1.5138868-3.460027-4.2158697v-11.346947h-2.074215v-1.225718c2.524479-.3963322 4.461614-2.4490347 5.117998-6.2679718h1.107649v5.6915341h3.804228z"></path>
                  <path d="m173.143561 24.0522288v7.5648315c0 2.5586989.657385 2.8461673 2.905702 2.9542306v.9367487h-10.514159v-.9367487c2.247317-.1080633 2.904702-.3955317 2.904702-2.9542306v-16.7156921c0-2.557198-.657385-2.8461673-2.904702-2.9534301v-.9367487h10.514159v.9367487c-2.248317.1072628-2.905702.3962321-2.905702 2.9534301v7.1332787h10.307038v-7.1332787c0-2.557198-.657385-2.8461673-2.904701-2.9534301v-.9367487h10.513158v.9367487c-2.248317.1072628-2.905702.3962321-2.905702 2.9534301v16.7156921c0 2.5586989.657385 2.8461673 2.905702 2.9542306v.9367487h-10.513158v-.9367487c2.247316-.1080633 2.904701-.3955317 2.904701-2.9542306v-7.5648315z"></path>
                  <path d="m201.781337 24.4124398c0-2.0535029-.484283-4.6107009-2.801641-4.6107009-2.386398 0-2.801641 2.557198-2.801641 4.6107009zm-5.603282 1.4403438c0 4.3960752 1.590932 6.917152 4.668735 6.917152 2.041196 0 3.459026-1.044712 4.773796-2.8820883l.656385.6123587c-1.175689 2.5586989-3.078804 5.4408873-7.020113 5.4408873-4.461613 0-7.229234-3.8196376-7.229234-8.3229756 0-5.655513 3.043783-9.4735496 7.194214-9.4735496 4.219472 0 6.501809 3.4578256 6.70893 7.7082155z"></path>
                  <path d="m217.067292 26.213795c-2.766621.7918639-5.810404 1.8726971-5.810404 4.5394593 0 1.5130863.968567 2.593119 2.455438 2.593119 1.21071 0 2.490459-.8639061 3.354966-1.8013552zm4.150431 6.5561406c0 .4683744.173102.7925643.553324.7925643.346203 0 .795466-.360211 1.037608-.5763376l.553324.6491803c-.830486 1.4043226-2.352378 2.3057507-4.01135 2.3057507-2.006175 0-2.283337-1.2977602-2.283337-2.5226778-1.659973 1.4411442-3.250905 2.5226778-5.603283 2.5226778-2.421418 0-4.357552-1.0815336-4.357552-4.3960752 0-5.0797758 6.813991-5.9076607 9.960835-6.9163516 0-4.2865111-.760446-5.0430542-2.905702-5.0430542-1.832074 0-2.144256.863906-2.144256 2.4490346 0 1.2970598-.829486 1.8733974-1.832074 1.8733974-1.003588 0-1.834074-.5763376-1.834074-1.8733974 0-2.6659617 3.251905-3.8900788 6.364728-3.8900788 3.459027 0 6.501809 1.4042226 6.501809 5.4384859z"></path>
                  <path d="m223.777222 35.5080396v-.9367487c1.868095-.1080633 2.109236-.7205221 2.109236-3.0262728v-16.9311183c0-1.8013552-.414243-2.1615662-2.109236-2.1615662v-.9367488c1.037608-.1801055 5.810404-1.5123859 6.018526-1.5123859.172101 0 .241141.1794051.241141.3595106v21.1823086c0 2.3057507.243143 2.9182095 2.110237 3.0262728v.9367487z"></path>
                  <path d="m242.937447 20.3782766h-3.804229v10.5903038c0 1.369102.345202 2.0903245 1.244729 2.0903245.864507 0 1.452851-.6124588 2.421419-1.585929l.691405.7205221c-1.27975 1.8733974-2.489459 3.7475953-5.048958 3.7475953-2.490459 0-3.459026-1.5138868-3.459026-4.2158697v-11.346947h-2.075216v-1.225718c2.524479-.3963322 4.461614-2.4490347 5.118999-6.2679718h1.106648v5.6915341h3.804229z"></path>
                  <path d="m250.200701 32.3376824c0 1.9094186.241142 2.1255452 2.005175 2.2336085v.9367487h-8.162782v-.9367487c1.764034-.1080633 2.006175-.3241899 2.006175-2.2696296v-18.0127519c0-1.5844281-.518303-1.8365758-2.006175-1.8365758v-.9367488c1.937135-.2881688 5.707344-1.5123859 5.914465-1.5123859.173101 0 .243142.1073629.243142.3955317v9.979546c1.520891-1.225718 3.318945-2.2337085 4.944897-2.2337085 3.493046 0 5.014938 1.8005548 5.014938 5.6193918v8.5737225c0 1.9094186.242142 2.1255452 2.006175 2.2336085v.9367487h-8.161781v-.9367487c1.763033-.1080633 2.005175-.3241899 2.005175-2.2336085v-8.8618913c0-2.3057507-.899527-2.8821884-2.074216-2.8821884-1.591932 0-2.69858.7205221-3.735188 1.4411443z"></path>
                  <path d="m1.56142848 43.4392857h41.54745852v-41.87939291h-41.54745852zm-1.56142848 1.5607143h44.6696013v-45h-44.6696013z"></path>
                  <path d="m22.3880487 14.5609688c-1.6503668-3.5466776-5.2445723-6.00572814-9.4137145-6.00572814-1.474864 0-2.8775857.30738006-4.14695932.86234516.24529369-.01916122.49363917-.02988751.744296-.02988751 3.65631192 0 6.82056552 2.10647399 8.34675952 5.17176959z"></path>
                  <path d="m35.2036561 9.38769831c.2506468 0 .4989923.01072629.744336.02988751-1.270144-.5549651-2.6728657-.86234516-4.1469292-.86234516-4.1699428 0-7.7642483 2.45905054-9.4130142 6.00572814l4.4681174.0008005.0008005-.0023014c1.526094-3.0653957 4.6903476-5.17176959 8.3466895-5.17176959z"></path>
                  <path d="m29.8571241 6.17285506c-.3180863-.09274433-.6445776-.16479654-.9795738-.21539618-.1601939-.02375392-.3219887-.04215469-.4852843-.05595278-.2000172-.01685987-.4031362-.02452436-.6062552-.02452436-.2744607 0-.5442188.01455852-.8102746.04368559-1.8089597.19930675-3.4202036 1.05551832-4.5891884 2.32642282-1.1689848-1.2709045-2.7794281-2.12788652-4.5899888-2.32642282-.2652554-.02912707-.5350134-.04368559-.8086737-.04368559-.2047199 0-.4070384.00766449-.6063552.02452436-.1639961.01379809-.3264913.03219886-.4867852.05595278-.3341957.05059964-.660687.1218814-.9780729.21539618-.315785.09352479-.6216642.20620079-.9175375.33880847.1226719.01149674.2460441.02376392.3695165.03986335 3.5973073.45378583 6.5300252 2.6997215 8.0178968 5.72830562 1.4870712-3.02858412 4.4197892-5.27451979 8.0186974-5.72830562.1225718-.01609943.2452437-.02836661.3679155-.03986335-.2958733-.13260768-.6017525-.24528368-.9160366-.33880847z"></path>
                  <path d="m22.3880487 6.52546162c1.1490731-1.26477091 2.7327008-2.11869113 4.5110426-2.31645699.2613531-.02912706.5274089-.04445604.7956661-.04445604.1233723 0 .2445432.00383225.3648137.00996584-.5027945-.21002303-1.0302035-.3564388-1.5752228-.42925145-.2720593-.03756201-.5488215-.05749368-.8300862-.05749368-.2093227 0-.4170443.01149673-.6216642.03142841-.1686988.01763032-.3349962.04139424-.4997928.0720522-.3426007.06285683-.6775969.15484071-1.0033878.27365031-.8439944.30660961-1.6250519.79182385-2.3172574 1.41808071.428551.30507872.8224818.65462348 1.1758888 1.04248069z"></path>
                  <path d="m23.7907704 31.3142829-3.3320519-2.6866738 2.6858734-3.3313516 3.332152 2.6858734z"></path>
                  <path d="m21.3701524 37.1215848 2.6858734-3.332152 3.3328524 2.6859735-2.6858734 3.3313515z"></path>
                  <path d="m25.5646095 19.4890557-2.6859734 3.3320519-3.3320519-2.6858734 2.685173-3.332152z"></path>
                  <path d="m31.1785982 31.7727515-2.6858734 3.3320519-3.3313515-2.6858734 2.6858734-3.3329524z"></path>
                  <path d="m14.3854608 23.733342-1.969954-1.5882304c.5243071-1.4196316 1.2287198-2.7104878 2.0749155-3.8242402l2.5809119 2.0803186z"></path>
                  <path d="m21.7740891 24.19091-2.6859735 3.3329525-3.3328524-2.6859735 2.6858734-3.3328523z"></path>
                  <path d="m11.9655432 29.5405439 2.6859735-3.3328524 3.3313515 2.6866738-2.685173 3.332152z"></path>
                  <path d="m20.2663058 38.4921877 3.2754187 2.6399465c-.3496048.0245144-.7083149.0367215-1.0770309.0367215-1.45105 0-2.7541133-.1893109-3.9115914-.5511228z"></path>
                  <path d="m11.8620826 23.9601749 1.4188312 1.1436699-1.9071172 2.3654857c.0475278-1.2164125.2154262-2.3923014.488286-3.5091556z"></path>
                  <path d="m22.6862234 32.6840853-2.6858734 3.3329525-3.332152-2.6859735 2.6859735-3.3321519z"></path>
                  <path d="m29.8640281 36.2093504 2.685173-3.3328523.4292515.3465029c-.4024358 1.534599-1.0125932 2.8843897-1.8373764 4.0158525z"></path>
                  <path d="m33.4146081 25.815962c.1011592.7704513.1540902 1.5615147.1540902 2.3678871 0 .2138253-.0023013.4246488-.0077045.6331709l-1.2770481 1.5851286-3.3328523-2.6858734 2.6859734-3.3329524z"></path>
                  <path d="m28.7586806 37.5792529 1.2157122.9803743c-1.0086909.9389501-2.2352094 1.6456641-3.6862594 2.0849214z"></path>
                  <path d="m13.6611365 37.0610494 1.901714-2.3601826 3.3329525 2.6859734-2.0366931 2.5271804c-1.302363-.691405-2.3647853-1.6549694-3.1979734-2.8529712z"></path>
                  <path d="m31.3710109 21.9089733-3.3313515-2.6858734 1.5438044-1.9163226c.9857775 1.053217 1.8273705 2.3195588 2.4789522 3.745294z"></path>
                  <path d="m14.1930481 33.5970201-1.466359 1.8189656c-.5327121-1.1589789-.9083321-2.4697468-1.128361-3.910791z"></path>
                  <path d="m27.5812909 26.6116281-3.3328524-2.6858734 2.6859735-3.332152 3.3328524 2.6859735z"></path>
                  <path d="m15.6495013 16.9947946c.3526065-.3519062.7236239-.6768966 1.1099502-.9727699h3.8418505l-2.4261212 3.0086625z"></path>
                  <path d="m28.2857036 16.1124777-1.616547 2.0059751-2.6008236-2.0964281h4.1017028c.0383225.0299175.0773453.0598351.1156678.090453z"></path>
                </g>
              </svg>